<svg width="67" height="64" viewBox="0 0 67 64" fill="none" xmlns="http://www.w3.org/2000/svg">
<path d="M9.6748 7.44009C7.57891 10.2643 5.48548 13.091 3.38958 15.9153C2.90063 16.5735 2.46327 17.266 2.0775 17.993L8.36272 9.51776C8.74849 8.79082 9.18585 8.09827 9.6748 7.44009Z" fill="url(#paint0_linear_224_7920)"/>
<path d="M57.3246 55.887C59.4205 53.0627 61.514 50.236 63.6099 47.4118C61.6589 50.0445 58.907 52.1025 55.4622 53.3771L49.177 61.8523C52.6218 60.5777 55.3737 58.5197 57.3246 55.887Z" fill="url(#paint1_linear_224_7920)"/>
<path d="M8.3623 9.51776L2.07708 17.993C1.14585 19.7489 0.502097 21.721 0.197419 23.8993C-0.109717 26.0777 -0.0507491 28.3297 0.317813 30.5965L6.60303 22.1213C6.23447 19.8545 6.1755 17.6025 6.48264 15.4241C6.78732 13.2458 7.43107 11.2713 8.3623 9.51776Z" fill="url(#paint2_linear_224_7920)"/>
<path d="M41.2334 54.3693L34.9482 62.8445C37.4765 63.2742 40.0049 63.4265 42.4644 63.2546C44.924 63.0827 47.1697 62.5989 49.1796 61.8547L55.4648 53.3795C53.455 54.1261 51.2092 54.6099 48.7496 54.7794C46.2901 54.9513 43.7642 54.799 41.2334 54.3693Z" fill="url(#paint3_linear_224_7920)"/>
<path d="M10.2915 22.9784C10.4463 23.0128 10.6208 23.025 10.8001 23.0128C11.0631 22.9956 11.3407 22.9243 11.584 22.804C11.9722 22.6125 12.2842 22.2956 12.3432 21.8585L13.4317 14.0808C13.4735 13.7713 13.3899 13.4226 13.2302 13.0812C12.928 12.428 12.3579 11.8017 11.8862 11.5316L8.36273 9.51777C10.2965 5.88063 13.5226 3.0662 17.8249 1.46989L19.9307 4.69199C20.3582 5.3477 21.7071 6.24901 22.7219 6.18024L31.5035 5.56873C32.5085 5.49751 33.0097 4.4685 32.85 3.79314L31.9851 0.467896C37.4251 1.37902 42.9044 3.59913 47.8652 6.77211L46.2829 9.13956C46.074 9.45882 46.074 10.1244 46.3517 10.7776C46.4966 11.1214 46.7178 11.4604 47.0225 11.7452L54.7156 18.9115C54.9097 19.0932 55.1308 19.243 55.3642 19.3658C55.6493 19.5181 55.9515 19.6261 56.2439 19.6973C56.578 19.7759 56.8975 19.8054 57.4085 19.7538C57.4847 19.7366 57.551 19.7145 57.6076 19.6875L60.3423 18.3859C61.9812 20.6257 63.394 23.0054 64.4898 25.4883C65.5882 27.9712 66.3105 30.4 66.6938 32.7282L63.0009 31.8735C62.8657 31.8416 62.7158 31.8293 62.4947 31.8391C62.2957 31.8539 62.0917 31.8956 61.9001 31.9668C61.4259 32.1412 61.018 32.485 60.9467 32.986L59.8681 40.7687C59.8238 41.0757 59.9098 41.4244 60.0671 41.7658C60.3693 42.419 60.9418 43.0453 61.4111 43.313L64.9149 45.3611C62.9812 48.9811 59.7649 51.7906 55.4674 53.3795L53.3691 50.1575C52.9391 49.5017 51.5853 48.6004 50.5754 48.6643L41.7938 49.2758C40.7815 49.347 40.2876 50.3809 40.4498 51.0563L41.2385 54.3766C35.8231 53.4557 30.3708 51.238 25.4247 48.0798L27.0095 45.7074C27.2208 45.3931 27.2184 44.7251 26.9432 44.0718C26.7982 43.7304 26.5795 43.3891 26.2749 43.1067L18.5719 35.9355C18.078 35.4714 17.3999 35.2037 16.8053 35.1054C16.562 35.0637 16.3335 35.0514 16.0362 35.076C15.8986 35.0932 15.7782 35.1226 15.6848 35.1668L12.9476 36.4709C11.3088 34.2312 9.90823 31.849 8.80991 29.3661C7.71159 26.8832 6.98922 24.4568 6.60591 22.1262L10.294 22.9808L10.2915 22.9784Z" fill="url(#paint4_linear_224_7920)"/>
<path d="M6.6031 22.1237L0.317877 30.5989C0.701182 32.9271 1.42111 35.3559 2.52188 37.8388C3.6202 40.3217 5.02073 42.7014 6.6596 44.9436L12.9448 36.4684C11.306 34.2287 9.90541 31.8465 8.8071 29.3636C7.70878 26.8807 6.9864 24.4543 6.6031 22.1237Z" fill="url(#paint5_linear_224_7920)"/>
<path d="M25.4221 48.0773L19.1368 56.5525C24.083 59.7132 29.5352 61.9284 34.9506 62.8494L41.2358 54.3742C35.8204 53.4532 30.3682 51.2356 25.4221 48.0773Z" fill="url(#paint6_linear_224_7920)"/>
<path d="M54.7156 18.909L47.0225 11.7428C46.7178 11.4579 46.4967 11.119 46.3517 10.7752C46.074 10.1219 46.074 9.4539 46.2829 9.13709L47.8677 6.76472C50.2486 8.29227 52.546 10.0605 54.6984 12.0694C56.8557 14.0758 58.7354 16.2002 60.3374 18.3859L57.6027 19.6875C57.5462 19.7145 57.4798 19.7366 57.4036 19.7538C57.3668 19.7636 57.3275 19.7685 57.2857 19.7759C57.2439 19.7808 57.2022 19.7857 57.1555 19.7906C56.8926 19.8078 56.5732 19.7808 56.239 19.6998C55.9466 19.631 55.6444 19.5205 55.3594 19.3682C55.1259 19.2454 54.9048 19.0932 54.7107 18.9139L54.7156 18.909Z" fill="url(#paint7_linear_224_7920)"/>
<path d="M19.9303 4.69198L17.8246 1.46988C17.8836 1.44778 17.9401 1.42568 18.0015 1.40603C18.2546 1.31271 18.5126 1.22675 18.7755 1.1408C20.5348 0.578403 22.4636 0.214935 24.5423 0.0700388C26.5546 -0.0699456 28.6087 0.00127442 30.6776 0.27142C31.0634 0.322993 31.4516 0.379478 31.8373 0.443331C31.9111 0.45561 31.9848 0.467889 32.0585 0.480168L32.8521 3.79313C33.0118 4.4685 32.5106 5.4975 31.5056 5.56872L22.724 6.18024C21.7117 6.25146 20.3603 5.35015 19.9328 4.69198H19.9303Z" fill="url(#paint8_linear_224_7920)"/>
<path d="M60.9416 32.9811C61.0129 32.4777 61.4207 32.1363 61.895 31.9619C62.0891 31.8907 62.293 31.849 62.4896 31.8342C62.5117 31.8342 62.5338 31.8318 62.5559 31.8318C62.7107 31.8269 62.8606 31.8391 62.9957 31.8686L66.6887 32.7233C67.0499 34.99 67.1089 37.242 66.8018 39.4204C66.502 41.5988 65.8582 43.5708 64.9196 45.3194L61.4011 43.308C60.9318 43.0403 60.3593 42.4141 60.0571 41.7608C59.8998 41.4195 59.8163 41.0707 59.858 40.7638L60.9367 32.9811H60.9416Z" fill="url(#paint9_linear_224_7920)"/>
<path d="M6.48276 15.4266C6.78744 13.2482 7.4312 11.2737 8.36243 9.52022L11.8859 11.534C12.3576 11.8042 12.9277 12.4329 13.2299 13.0837C13.3872 13.425 13.4732 13.7738 13.4314 14.0832L12.3429 21.8609C12.2839 22.2981 11.9719 22.6149 11.5837 22.8065C11.3404 22.9268 11.0628 22.9956 10.7999 23.0152C10.6205 23.0275 10.4485 23.0152 10.2937 22.9808L6.60562 22.1262C6.23706 19.8594 6.17808 17.6074 6.48522 15.429L6.48276 15.4266Z" fill="url(#paint10_linear_224_7920)"/>
<path d="M41.7912 49.2733L50.5728 48.6618C51.5827 48.598 52.9365 49.4993 53.3665 50.155L55.4648 53.3771C53.455 54.1237 51.2092 54.6075 48.7496 54.7769C46.2901 54.9488 43.7642 54.7966 41.2334 54.3668L40.4472 51.0538C40.285 50.3785 40.7789 49.3421 41.7912 49.2733Z" fill="url(#paint11_linear_224_7920)"/>
<path d="M16.0337 35.0711C16.0657 35.0686 16.0976 35.0637 16.132 35.0612C16.331 35.0465 16.5595 35.0612 16.8028 35.1005C17.3999 35.2012 18.0756 35.4689 18.5694 35.9306L26.2724 43.1017C26.5771 43.3842 26.7957 43.7231 26.9407 44.0669C27.2159 44.7202 27.2184 45.3882 27.007 45.7025L25.4222 48.0749C23.0438 46.5522 20.7464 44.784 18.5866 42.7776C16.4465 40.7883 14.5816 38.6812 12.9894 36.5176C12.9746 36.5004 12.9624 36.4807 12.9476 36.4635L15.6799 35.1595C15.7733 35.1153 15.8937 35.0858 16.0313 35.0686L16.0337 35.0711Z" fill="url(#paint12_linear_224_7920)"/>
<path d="M12.9497 36.466L6.6645 44.9412C6.67924 44.9584 6.69152 44.978 6.70626 44.9952C8.29845 47.1564 10.1609 49.2635 12.3035 51.2552C14.4608 53.2617 16.7606 55.0299 19.1391 56.5525L25.4243 48.0773C23.0459 46.5547 20.7485 44.7865 18.5887 42.78C16.4486 40.7908 14.5837 38.6837 12.9915 36.52C12.9767 36.5028 12.9645 36.4832 12.9497 36.466Z" fill="url(#paint13_linear_224_7920)"/>
<g style="mix-blend-mode:overlay">
<path d="M28.4125 9.08306C38.8649 8.35613 51.025 16.0946 55.5706 26.365C60.1162 36.6354 55.3249 45.5551 44.8725 46.2821C34.4201 47.009 22.2649 39.2706 17.7193 29.0001C13.1737 18.7297 17.9576 9.81 28.41 9.08306H28.4125Z" fill="white"/>
</g>
<path d="M28.4125 8.82521C38.8649 8.09827 51.025 15.8367 55.5706 26.1071C60.1162 36.3776 55.3249 45.2973 44.8725 46.0242C34.4201 46.7512 22.2649 39.0127 17.7193 28.7423C13.1737 18.4718 17.9576 9.55214 28.41 8.82521H28.4125Z" fill="#FF9F05"/>
<path d="M29.3212 18.629L31.7095 16.4065L35.7981 18.2901C36.0045 18.3883 37.8522 19.243 39.8768 20.385C42.8352 22.0623 46.4053 24.4224 47.8329 27.8631C49.172 31.0999 47.5872 33.8579 44.2947 34.0298C42.673 34.1157 40.9432 33.5607 39.4395 32.5857C40.6238 34.3441 42.4125 36.5446 44.7468 38.0181L36.7391 38.438C37.7785 36.7877 37.7171 34.4964 37.4198 32.6938C36.7686 33.7793 35.5671 34.489 33.9479 34.5725C30.648 34.7469 26.8961 32.2665 25.557 29.0296C24.1319 25.5865 25.6405 22.9636 27.1197 21.0505C28.1246 19.7489 29.2033 18.742 29.3212 18.6266V18.629Z" fill="url(#paint14_linear_224_7920)"/>
<path d="M54.9588 28.1111C50.4132 17.8407 38.2531 10.1023 27.8007 10.8292C22.0462 11.2295 18.0141 14.1176 16.3064 18.3441C17.4441 13.0419 21.7882 9.28691 28.4149 8.82521C38.8674 8.09827 51.0275 15.8367 55.5731 26.1071C57.6149 30.7217 57.7672 35.0588 56.3741 38.5093C57.0301 35.4468 56.6222 31.8711 54.9588 28.1136V28.1111Z" fill="#E87500"/>
<g style="mix-blend-mode:multiply">
<path d="M0.197797 23.9018C0.502475 21.7234 1.14623 19.7514 2.07746 17.9954C2.46323 17.2685 2.90058 16.5759 3.38954 15.9177C3.49028 15.7802 3.59349 15.6427 3.69423 15.5076C3.37972 16.016 3.08241 16.5636 2.82688 17.045C1.89564 18.8009 1.25188 20.773 0.947204 22.9513C0.640069 25.1297 0.699044 27.3817 1.06761 29.6485C1.45091 31.9767 2.17084 34.4055 3.27161 36.8884C4.36992 39.3713 5.77046 41.751 7.40933 43.9932L7.42408 43.9834L7.4167 43.9932C7.43145 44.0104 7.44373 44.0301 7.45847 44.0472C9.05066 46.2084 10.9131 48.3155 13.0557 50.3072C15.213 52.3137 17.5129 54.0819 19.8913 55.6045C24.8374 58.7652 30.2897 60.9804 35.7051 61.9014L35.71 61.8965C38.2383 62.3263 40.7618 62.4761 43.2188 62.3066C45.6784 62.1347 47.9242 61.6509 49.934 60.9068C53.0619 59.7476 55.6124 57.9376 57.5166 55.6463C57.4552 55.7298 57.3937 55.8133 57.3323 55.8943C55.3814 58.527 52.6295 60.585 49.1846 61.8596C47.1747 62.6062 44.929 63.09 42.4694 63.2595C40.0124 63.4314 37.4865 63.2791 34.9606 62.8494L34.9557 62.8543C29.5403 61.9333 24.088 59.7181 19.1419 56.5574C16.7634 55.0348 14.4661 53.2666 12.3063 51.2601C10.1662 49.2709 8.30125 47.1637 6.70906 45.0001C6.69432 44.9829 6.68204 44.9633 6.6673 44.9461L6.67467 44.9363L6.65992 44.9461C5.02105 42.7063 3.62051 40.3241 2.52219 37.8413C1.42388 35.3584 0.701496 32.9295 0.318192 30.6014C-0.0503706 28.3346 -0.109338 26.0826 0.197797 23.9042V23.9018Z" fill="#B0AAAA"/>
</g>
<g style="mix-blend-mode:overlay">
<path d="M8.39692 29.8794C7.29861 27.3965 6.57622 24.9676 6.19292 22.6395C5.82436 20.3727 5.76539 18.1207 6.07253 15.9423C6.3772 13.764 7.02096 11.7919 7.95219 10.0359C8.25441 9.46618 8.60086 8.92098 8.96451 8.39297C9.20039 8.07371 9.43627 7.7569 9.67215 7.44009C9.18319 8.09827 8.74583 8.79082 8.36007 9.51776C7.42883 11.2737 6.78508 13.2458 6.4804 15.4241C6.17327 17.6025 6.23223 19.8545 6.6008 22.1213C6.9841 24.4494 7.70403 26.8783 8.8048 29.3612C9.90311 31.844 11.3037 34.2238 12.9425 36.466L12.9352 36.4832L12.9474 36.466C12.9622 36.4832 12.9745 36.5028 12.9892 36.52C14.5814 38.6812 16.4439 40.7883 18.5864 42.78C20.7438 44.7865 23.0436 46.5547 25.422 48.0773C30.3657 51.2356 35.818 53.4532 41.2285 54.3742L41.2334 54.3693C43.7617 54.799 46.29 54.9513 48.7496 54.7794C51.2091 54.6075 53.4549 54.1237 55.4648 53.3795C58.7253 52.1713 61.3544 50.2581 63.2808 47.8268C63.2562 47.8612 63.2292 47.8956 63.2021 47.9324C61.2512 50.5651 58.4993 52.6231 55.0545 53.8977C53.0446 54.6443 50.7988 55.1281 48.3392 55.2976C45.8822 55.4695 43.3563 55.3172 40.8304 54.8874L40.8255 54.8924C35.4101 53.9714 29.9578 51.7562 25.0117 48.5955C22.6333 47.0729 20.3359 45.3047 18.1761 43.2982C16.036 41.309 14.1711 39.2018 12.5789 37.0382C12.5641 37.021 12.5518 37.0014 12.5371 36.9842L12.5445 36.9744L12.5297 36.9842C10.8909 34.7444 9.49033 32.3622 8.39201 29.8794H8.39692Z" fill="white"/>
</g>
<defs>
<linearGradient id="paint0_linear_224_7920" x1="-13.8518" y1="-8.34868" x2="46.0694" y2="55.6906" gradientUnits="userSpaceOnUse">
<stop stop-color="#FFEA05"/>
<stop offset="0.19" stop-color="#FFD905"/>
<stop offset="0.72" stop-color="#FFAF05"/>
<stop offset="1" stop-color="#FF9F05"/>
</linearGradient>
<linearGradient id="paint1_linear_224_7920" x1="-7.86173" y1="-13.9677" x2="52.0717" y2="50.0814" gradientUnits="userSpaceOnUse">
<stop stop-color="#FFEA05"/>
<stop offset="0.19" stop-color="#FFD905"/>
<stop offset="0.72" stop-color="#FFAF05"/>
<stop offset="1" stop-color="#FF9F05"/>
</linearGradient>
<linearGradient id="paint2_linear_224_7920" x1="4.71845" y1="9.70195" x2="0.771356" y2="69.2226" gradientUnits="userSpaceOnUse">
<stop stop-color="#38393B"/>
<stop offset="0.33" stop-color="#2E2F31"/>
<stop offset="1" stop-color="#1F2021"/>
</linearGradient>
<linearGradient id="paint3_linear_224_7920" x1="48.2287" y1="12.59" x2="44.2792" y2="72.1107" gradientUnits="userSpaceOnUse">
<stop stop-color="#38393B"/>
<stop offset="0.33" stop-color="#2E2F31"/>
<stop offset="1" stop-color="#1F2021"/>
</linearGradient>
<linearGradient id="paint4_linear_224_7920" x1="55.6788" y1="24.2309" x2="-23.8991" y2="37.5913" gradientUnits="userSpaceOnUse">
<stop stop-color="#FFEA05"/>
<stop offset="0.19" stop-color="#FFD905"/>
<stop offset="0.72" stop-color="#FFAF05"/>
<stop offset="1" stop-color="#FF9F05"/>
</linearGradient>
<linearGradient id="paint5_linear_224_7920" x1="-23.8426" y1="0.998353" x2="36.0835" y2="65.0401" gradientUnits="userSpaceOnUse">
<stop stop-color="#FFEA05"/>
<stop offset="0.19" stop-color="#FFD905"/>
<stop offset="0.72" stop-color="#FFAF05"/>
<stop offset="1" stop-color="#FF9F05"/>
</linearGradient>
<linearGradient id="paint6_linear_224_7920" x1="-22.238" y1="-0.507081" x2="37.6906" y2="63.5371" gradientUnits="userSpaceOnUse">
<stop stop-color="#FFEA05"/>
<stop offset="0.19" stop-color="#FFD905"/>
<stop offset="0.72" stop-color="#FFAF05"/>
<stop offset="1" stop-color="#FF9F05"/>
</linearGradient>
<linearGradient id="paint7_linear_224_7920" x1="58.1015" y1="12.2339" x2="-3.62328" y2="23.822" gradientUnits="userSpaceOnUse">
<stop stop-color="#38393B"/>
<stop offset="0.33" stop-color="#2E2F31"/>
<stop offset="1" stop-color="#1F2021"/>
</linearGradient>
<linearGradient id="paint8_linear_224_7920" x1="55.3565" y1="-2.39565" x2="-6.37312" y2="9.19483" gradientUnits="userSpaceOnUse">
<stop stop-color="#38393B"/>
<stop offset="0.33" stop-color="#2E2F31"/>
<stop offset="1" stop-color="#1F2021"/>
</linearGradient>
<linearGradient id="paint9_linear_224_7920" x1="63.0695" y1="38.691" x2="1.33489" y2="50.279" gradientUnits="userSpaceOnUse">
<stop stop-color="#38393B"/>
<stop offset="0.33" stop-color="#2E2F31"/>
<stop offset="1" stop-color="#1F2021"/>
</linearGradient>
<linearGradient id="paint10_linear_224_7920" x1="57.1847" y1="7.34432" x2="-4.54255" y2="18.9324" gradientUnits="userSpaceOnUse">
<stop stop-color="#38393B"/>
<stop offset="0.33" stop-color="#2E2F31"/>
<stop offset="1" stop-color="#1F2021"/>
</linearGradient>
<linearGradient id="paint11_linear_224_7920" x1="64.8976" y1="48.431" x2="3.17039" y2="60.019" gradientUnits="userSpaceOnUse">
<stop stop-color="#38393B"/>
<stop offset="0.33" stop-color="#2E2F31"/>
<stop offset="1" stop-color="#1F2021"/>
</linearGradient>
<linearGradient id="paint12_linear_224_7920" x1="62.1531" y1="33.8038" x2="0.423502" y2="45.3919" gradientUnits="userSpaceOnUse">
<stop stop-color="#38393B"/>
<stop offset="0.33" stop-color="#2E2F31"/>
<stop offset="1" stop-color="#1F2021"/>
</linearGradient>
<linearGradient id="paint13_linear_224_7920" x1="18.4265" y1="10.6131" x2="14.4794" y2="70.1313" gradientUnits="userSpaceOnUse">
<stop stop-color="#38393B"/>
<stop offset="0.33" stop-color="#2E2F31"/>
<stop offset="1" stop-color="#1F2021"/>
</linearGradient>
<linearGradient id="paint14_linear_224_7920" x1="48.3071" y1="27.4235" x2="24.9845" y2="27.4235" gradientUnits="userSpaceOnUse">
<stop stop-color="#38393B"/>
<stop offset="0.33" stop-color="#2E2F31"/>
<stop offset="1" stop-color="#1F2021"/>
</linearGradient>
</defs>
</svg>
