<?xml version="1.0" encoding="UTF-8" standalone="no"?>
<svg xmlns="http://www.w3.org/2000/svg" xmlns:xlink="http://www.w3.org/1999/xlink" class="card" face="TD" height="3.5in" preserveAspectRatio="none" viewBox="-120 -168 240 336" width="2.5in"><defs><symbol id="TD_SDT" viewBox="-600 -600 1200 1200" preserveAspectRatio="xMinYMid"><path d="M-400 0C-350 0 0 -450 0 -500C0 -450 350 0 400 0C350 0 0 450 0 500C0 450 -350 0 -400 0Z" fill="red"></path></symbol><symbol id="TD_VDT" viewBox="-500 -500 1000 1000" preserveAspectRatio="xMinYMid"><path d="M-260 430L-260 -430M-50 0L-50 -310A150 150 0 0 1 250 -310L250 310A150 150 0 0 1 -50 310Z" stroke="red" stroke-width="80" stroke-linecap="square" stroke-miterlimit="1.5" fill="none"></path></symbol><rect id="TD_XDT" width="104" height="200" x="-52" y="-100"></rect></defs><rect width="239" height="335" x="-119.5" y="-167.5" rx="12" ry="12" fill="white" stroke="black"></rect><use href="#TD_XDT" width="104" height="200" stroke="#88f" fill="#FFC"></use><use href="#TD_VDT" height="70" width="70" x="-122" y="-156"></use><use href="#TD_SDT" height="58.558" width="58.558" x="-116.279" y="-81"></use><use href="#TD_VDT" height="104" width="104" x="-52" y="-52"></use><g transform="rotate(180)"><use href="#TD_VDT" height="70" width="70" x="-122" y="-156"></use><use href="#TD_SDT" height="58.558" width="58.558" x="-116.279" y="-81"></use></g></svg>