<svg width="67" height="63" viewBox="0 0 67 63" fill="none" xmlns="http://www.w3.org/2000/svg">
<path d="M57.3276 7.40349C59.4222 10.2136 61.5168 13.026 63.6113 15.8362C64.0982 16.4914 64.5375 17.1805 64.9224 17.9033L58.6387 9.47057C58.2515 8.74777 57.8145 8.05649 57.3276 7.40349Z" fill="url(#paint0_linear_224_7925)"/>
<path d="M9.67776 55.6038C7.58319 52.7937 5.48635 49.9813 3.39404 47.1711C5.34596 49.7899 8.0972 51.8367 11.5414 53.1067L17.8251 61.5393C14.3809 60.2694 11.6297 58.2226 9.67776 55.6038Z" fill="url(#paint1_linear_224_7925)"/>
<path d="M58.6387 9.47057L64.9224 17.9033C65.8531 19.6506 66.4961 21.6118 66.8018 23.7803C67.1075 25.9487 67.0487 28.1891 66.6818 30.4431L60.3981 22.0104C60.7672 19.7542 60.8261 17.5137 60.5181 15.3476C60.2124 13.1791 59.5693 11.2179 58.6387 9.47057Z" fill="url(#paint2_linear_224_7925)"/>
<path d="M25.7705 54.0907L32.0542 62.5233C29.5249 62.9512 26.9978 63.102 24.5387 62.9309C22.0795 62.7598 19.8333 62.2802 17.8247 61.5371L11.541 53.1044C13.5518 53.8475 15.7958 54.3271 18.255 54.4982C20.7141 54.6693 23.2412 54.5185 25.7705 54.0907Z" fill="url(#paint3_linear_224_7925)"/>
<path d="M56.7113 22.8615C56.5573 22.8976 56.383 22.9088 56.2041 22.8953C55.9414 22.8773 55.6652 22.8075 55.4206 22.6882C55.0311 22.499 54.7209 22.1838 54.662 21.7469L53.5729 14.01C53.5298 13.7038 53.6159 13.3548 53.7744 13.0148C54.0756 12.3663 54.6462 11.7426 55.1172 11.4723L58.6406 9.46831C56.7068 5.8498 53.48 3.04866 49.1777 1.4612L47.074 4.66539C46.6461 5.31839 45.2965 6.21458 44.2843 6.14477L35.5029 5.53681C34.4975 5.46701 33.9971 4.44247 34.1556 3.77146L35.0206 0.463684C29.5815 1.37113 24.1017 3.57781 19.1381 6.73473L20.7209 9.09002C20.9315 9.40752 20.9293 10.0695 20.653 10.7203C20.5081 11.0603 20.2884 11.4003 19.9827 11.6818L12.2906 18.8107C12.0958 18.9908 11.8762 19.1417 11.6429 19.2633C11.3576 19.4142 11.0542 19.5222 10.7621 19.592C10.4292 19.6709 10.1099 19.7001 9.59819 19.6483C9.52346 19.6326 9.45779 19.6101 9.40118 19.583L6.66805 18.2883C5.02863 20.5175 3.6179 22.8841 2.51967 25.3542C1.42143 27.8243 0.69909 30.2404 0.316406 32.5575L4.00964 31.7063C4.14551 31.6748 4.29496 31.6635 4.51461 31.6725C4.71161 31.686 4.91767 31.7288 5.11014 31.7986C5.58567 31.972 5.991 32.3143 6.06346 32.8142L7.14131 40.5578C7.18434 40.8641 7.10055 41.2108 6.94431 41.5508C6.64314 42.1993 6.07025 42.823 5.60152 43.091L2.09623 45.1288C4.03002 48.7316 7.24774 51.5237 11.5433 53.1067L13.6424 49.9002C14.0704 49.2472 15.4268 48.351 16.4344 48.4141L25.2158 49.022C26.228 49.0918 26.7216 50.1231 26.5608 50.7941L25.7705 54.0974C31.1847 53.181 36.6374 50.9765 41.5851 47.8309L40 45.4711C39.7895 45.1581 39.7894 44.4938 40.0657 43.8431C40.2106 43.5031 40.4303 43.1653 40.7337 42.8838L48.4349 35.7481C48.9308 35.2865 49.6056 35.0208 50.2034 34.9218C50.4457 34.8812 50.6767 34.87 50.9733 34.8925C51.1115 34.9083 51.2315 34.9398 51.3243 34.9826L54.062 36.2795C55.7014 34.0503 57.1008 31.6815 58.199 29.2114C59.2973 26.7413 60.0196 24.3252 60.4023 22.0104L56.7159 22.8615H56.7113Z" fill="url(#paint4_linear_224_7925)"/>
<path d="M60.3979 22.0104L66.6817 30.4431C66.299 32.7601 65.5766 35.1739 64.4784 37.6441C63.3802 40.1142 61.9808 42.483 60.3413 44.7122L54.0576 36.2795C55.697 34.0503 57.0964 31.6815 58.1947 29.2114C59.2929 26.7413 60.0153 24.3252 60.3979 22.0104Z" fill="url(#paint5_linear_224_7925)"/>
<path d="M41.5807 47.8309L47.8644 56.2636C42.919 59.407 37.4663 61.6137 32.0498 62.5301L25.7661 54.0974C31.1803 53.181 36.633 50.9765 41.5807 47.8309Z" fill="url(#paint6_linear_224_7925)"/>
<path d="M12.2864 18.813L19.9786 11.684C20.2843 11.4003 20.5039 11.0625 20.6488 10.7225C20.9251 10.0718 20.9274 9.40753 20.7168 9.09229L19.1317 6.73248C16.7518 8.25239 14.4534 10.011 12.3 12.0083C10.142 14.0055 8.26482 16.1199 6.66162 18.2906L9.39475 19.5853C9.45136 19.6123 9.51703 19.6348 9.59176 19.6506C9.63025 19.6596 9.66875 19.6664 9.70951 19.6709C9.75027 19.6776 9.79329 19.6821 9.83858 19.6844C10.1012 19.7024 10.4205 19.6731 10.7557 19.5943C11.0478 19.5245 11.3489 19.4164 11.6365 19.2656C11.8697 19.144 12.0894 18.9931 12.2841 18.813H12.2864Z" fill="url(#paint7_linear_224_7925)"/>
<path d="M47.0718 4.6699L49.1777 1.46345C49.1188 1.44093 49.0622 1.42067 49.001 1.39815C48.7474 1.30583 48.4893 1.21801 48.2266 1.1347C46.4672 0.574022 44.5402 0.213747 42.4614 0.0696368C40.4484 -0.0699699 38.3946 0.00208505 36.3249 0.27004C35.94 0.319578 35.5528 0.375871 35.1655 0.441171C35.0908 0.45243 35.0184 0.46594 34.9459 0.477198L34.1511 3.77372C33.9903 4.44473 34.493 5.46926 35.4984 5.53907L44.2798 6.14703C45.2919 6.21683 46.6415 5.32065 47.0695 4.66765L47.0718 4.6699Z" fill="url(#paint8_linear_224_7925)"/>
<path d="M6.05913 32.8142C5.98894 32.3143 5.57908 31.972 5.10582 31.7986C4.91335 31.7288 4.70729 31.6861 4.51028 31.6725C4.48764 31.6725 4.46726 31.6703 4.44462 31.668C4.29064 31.6635 4.14119 31.6748 4.00532 31.7063L0.312084 32.5575C-0.0502198 34.8137 -0.109094 37.0542 0.198864 39.2226C0.50003 41.3887 1.14086 43.3522 2.08058 45.0905L5.59946 43.0888C6.06819 42.8231 6.64109 42.1993 6.94225 41.5486C7.09849 41.2086 7.18454 40.8618 7.13925 40.5556L6.0614 32.8119L6.05913 32.8142Z" fill="url(#paint9_linear_224_7925)"/>
<path d="M60.5204 15.3476C60.2147 13.1791 59.5716 11.2179 58.641 9.47057L55.1175 11.4746C54.6465 11.7448 54.0759 12.3685 53.7748 13.017C53.6162 13.357 53.5325 13.7038 53.5732 14.0123L54.6624 21.7492C54.7213 22.1838 55.0338 22.499 55.421 22.6904C55.6655 22.8098 55.9418 22.8796 56.2067 22.8976C56.3856 22.9088 56.56 22.8976 56.7139 22.8638L60.4004 22.0126C60.7695 19.7564 60.8284 17.516 60.5204 15.3498V15.3476Z" fill="url(#paint10_linear_224_7925)"/>
<path d="M25.2115 49.022L16.4302 48.4141C15.4202 48.351 14.0661 49.2472 13.6382 49.9002L11.5391 53.1067C13.5499 53.8497 15.7939 54.3293 18.253 54.5005C20.7121 54.6716 23.2392 54.5207 25.7686 54.0929L26.5543 50.7964C26.7151 50.1254 26.2237 49.0941 25.2115 49.0243V49.022Z" fill="url(#paint11_linear_224_7925)"/>
<path d="M50.9692 34.8925C50.9375 34.888 50.9058 34.8857 50.8718 34.8835C50.6748 34.87 50.4438 34.8835 50.2015 34.9218C49.606 35.0208 48.9289 35.2865 48.433 35.7481L40.7318 42.8839C40.4284 43.1653 40.2065 43.5031 40.0638 43.8431C39.7876 44.4938 39.7853 45.1581 39.9981 45.4711L41.5832 47.8309C43.9609 46.3177 46.2592 44.5569 48.4172 42.5619C50.5571 40.5826 52.4229 38.4862 54.0148 36.3336C54.0284 36.3156 54.042 36.2976 54.0556 36.2796L51.3224 34.9826C51.2273 34.9398 51.1096 34.9083 50.9714 34.8925H50.9692Z" fill="url(#paint12_linear_224_7925)"/>
<path d="M54.0531 36.2796L60.3368 44.7122C60.3232 44.7303 60.3096 44.7483 60.296 44.7663C58.7041 46.9167 56.8405 49.013 54.7007 50.9946C52.5427 52.9896 50.2443 54.7504 47.8667 56.2636L41.583 47.8309C43.9606 46.3177 46.259 44.5569 48.417 42.5619C50.5568 40.5826 52.4227 38.4862 54.0146 36.3336C54.0282 36.3156 54.0417 36.2976 54.0553 36.2796H54.0531Z" fill="url(#paint13_linear_224_7925)"/>
<g style="mix-blend-mode:overlay">
<path d="M38.5894 9.03824C28.1369 8.31319 15.9748 16.0141 11.4301 26.2324C6.88549 36.4507 11.6747 45.3247 22.1272 46.0498C32.5797 46.7748 44.735 39.0739 49.2796 28.8556C53.8243 18.6373 49.0396 9.76329 38.5871 9.04049L38.5894 9.03824Z" fill="white"/>
</g>
<path d="M38.5894 8.77928C28.1369 8.05423 15.9748 15.7551 11.4301 25.9734C6.88549 36.1917 11.6747 45.0658 22.1272 45.7908C32.5797 46.5159 44.735 38.815 49.2796 28.5967C53.8243 18.3784 49.0396 9.50434 38.5871 8.78154L38.5894 8.77928Z" fill="#9B59B6"/>
<path d="M39.4046 24.9039C38.8838 24.4918 38.2588 24.2283 37.5682 24.1113C38.132 23.4718 38.594 22.7602 38.911 21.9991C40.136 19.0561 38.6823 16.5432 35.6684 16.3856C32.6522 16.228 29.2148 18.4887 27.9898 21.4295C27.6728 22.1883 27.5369 22.9178 27.555 23.5889C26.7964 23.6316 25.9858 23.8185 25.1502 24.1608C21.928 25.4983 19.6726 28.7048 20.1232 31.3348C20.4267 33.0956 21.8646 34.1494 23.7508 34.2485C24.677 34.298 25.7095 34.1157 26.7693 33.6743C27.0206 33.573 27.2629 33.4559 27.4916 33.3343C26.4138 34.8452 24.8785 36.5903 22.9492 37.7995L30.4014 38.1868C29.5409 36.8312 29.4911 35.0051 29.6813 33.4491C29.8081 33.591 29.9462 33.7261 30.1025 33.8499C30.7591 34.3791 31.5992 34.6583 32.5254 34.7079C34.4116 34.8069 36.6488 33.9445 38.3743 32.2895C40.9399 29.8171 41.3996 26.5161 39.4046 24.9061V24.9039Z" fill="url(#paint14_linear_224_7925)"/>
<path d="M12.0438 27.9684C16.5885 17.7501 28.7506 10.0515 39.2031 10.7743C44.9592 11.1729 48.9898 14.0461 50.6972 18.25C49.5604 12.9742 45.2151 9.23864 38.5894 8.77928C28.1369 8.05423 15.9748 15.7551 11.4302 25.9734C9.3877 30.5647 9.23598 34.8812 10.6286 38.3106C9.97191 35.264 10.3795 31.7063 12.0438 27.9684Z" fill="#9B59B6"/>
<g style="mix-blend-mode:multiply">
<path d="M66.8039 23.7802C66.4982 21.6141 65.8551 19.6506 64.9244 17.9033C64.5372 17.1805 64.1002 16.4892 63.6133 15.8362C63.5114 15.7011 63.4095 15.5637 63.3076 15.4264C63.6224 15.933 63.919 16.4757 64.1749 16.9553C65.1056 18.7026 65.7487 20.6639 66.0544 22.8323C66.3601 25.0007 66.3012 27.2411 65.9343 29.4951C65.5517 31.8121 64.8293 34.226 63.7311 36.6961C62.6328 39.1662 61.2334 41.5351 59.594 43.7643L59.5804 43.753L59.5895 43.762C59.5759 43.78 59.5623 43.798 59.5487 43.8161C57.9569 45.9664 56.0933 48.0628 53.9534 50.0443C51.7954 52.0393 49.4971 53.8002 47.1194 55.3133C42.174 58.4567 36.7213 60.6634 31.3049 61.5799L31.3003 61.5754C28.7733 62.0009 26.2484 62.1518 23.7916 61.9829C21.3324 61.8118 19.0861 61.3322 17.0776 60.5891C13.9482 59.4362 11.4008 57.6371 9.49414 55.3539C9.55528 55.4372 9.61642 55.5182 9.67756 55.6016C11.6295 58.2203 14.3807 60.2671 17.8249 61.5371C19.8357 62.2779 22.0797 62.7598 24.5388 62.9309C26.9957 63.102 29.5205 62.9512 32.0476 62.5233L32.0521 62.5278C37.4663 61.6114 42.919 59.407 47.8667 56.2613C50.2443 54.7482 52.5427 52.9873 54.7006 50.9923C56.8405 49.013 58.7064 46.9167 60.296 44.764C60.3096 44.746 60.3232 44.728 60.3367 44.71L60.3277 44.701L60.3413 44.7122C61.9807 42.483 63.3801 40.1142 64.4783 37.6441C65.5766 35.1739 66.2989 32.7579 66.6816 30.4431C67.0507 28.1869 67.1096 25.9464 66.8016 23.7802H66.8039Z" fill="#B0AAAA"/>
</g>
<g style="mix-blend-mode:overlay">
<path d="M58.6046 29.7293C59.7029 27.2592 60.4252 24.8431 60.8079 22.5283C61.177 20.2721 61.2359 18.0316 60.9279 15.8632C60.6222 13.697 59.9791 11.7335 59.0485 9.98621C58.745 9.41877 58.4008 8.87836 58.0363 8.35146C57.8008 8.03396 57.5653 7.71872 57.3298 7.40123C57.8166 8.05648 58.2559 8.74551 58.6409 9.46831C59.5715 11.2156 60.2146 13.1769 60.5203 15.3453C60.826 17.5115 60.7671 19.7519 60.4003 22.0081C60.0176 24.3252 59.2953 26.7413 58.197 29.2091C57.0988 31.6793 55.6994 34.0481 54.06 36.2773L54.0668 36.2931L54.0555 36.2773C54.0419 36.2953 54.0283 36.3133 54.0147 36.3313C52.4228 38.4817 50.5592 40.5781 48.4171 42.5596C46.2591 44.5569 43.9607 46.3155 41.5831 47.8286C36.6377 50.972 31.1873 53.1765 25.7753 54.0929L25.7708 54.0884C23.2415 54.5162 20.7144 54.6671 18.2553 54.496C15.7961 54.3248 13.5498 53.8452 11.5413 53.1021C8.28285 51.902 5.65161 49.997 3.72461 47.5787C3.74952 47.6125 3.77669 47.6485 3.8016 47.6823C5.75351 50.301 8.50476 52.3478 11.9489 53.6178C13.9597 54.3586 16.2037 54.8405 18.6629 55.0116C21.1197 55.1827 23.6445 55.0319 26.1716 54.604L26.1761 54.6085C31.5903 53.6921 37.043 51.4877 41.9907 48.3443C44.3683 46.8311 46.6667 45.0703 48.8247 43.0752C50.9645 41.096 52.8304 38.9996 54.4223 36.847C54.4359 36.829 54.4495 36.811 54.463 36.7929L54.454 36.7839L54.4676 36.7952C56.107 34.566 57.5064 32.1972 58.6046 29.727V29.7293Z" fill="white"/>
</g>
<defs>
<linearGradient id="paint0_linear_224_7925" x1="79.1424" y1="-27.1213" x2="44.324" y2="-9.12594" gradientUnits="userSpaceOnUse">
<stop stop-color="#D4A5FF"/>
<stop offset="0.15" stop-color="#C490F0"/>
<stop offset="0.71" stop-color="#9B59D0"/>
<stop offset="1" stop-color="#8E44AD"/>
</linearGradient>
<linearGradient id="paint1_linear_224_7925" x1="44.8446" y1="-0.0736883" x2="-10.4892" y2="39.6362" gradientUnits="userSpaceOnUse">
<stop stop-color="#D4A5FF"/>
<stop offset="0.15" stop-color="#C490F0"/>
<stop offset="0.71" stop-color="#9B59D0"/>
<stop offset="1" stop-color="#8E44AD"/>
</linearGradient>
<linearGradient id="paint2_linear_224_7925" x1="62.2844" y1="9.65296" x2="66.1918" y2="68.8739" gradientUnits="userSpaceOnUse">
<stop stop-color="#38393B"/>
<stop offset="0.33" stop-color="#2E2F31"/>
<stop offset="1" stop-color="#1F2021"/>
</linearGradient>
<linearGradient id="paint3_linear_224_7925" x1="18.7735" y1="12.5261" x2="22.6832" y2="71.7448" gradientUnits="userSpaceOnUse">
<stop stop-color="#38393B"/>
<stop offset="0.33" stop-color="#2E2F31"/>
<stop offset="1" stop-color="#1F2021"/>
</linearGradient>
<linearGradient id="paint4_linear_224_7925" x1="172.902" y1="-175.892" x2="-39.831" y2="-5.60354" gradientUnits="userSpaceOnUse">
<stop stop-color="#D4A5FF"/>
<stop offset="0.15" stop-color="#C490F0"/>
<stop offset="0.71" stop-color="#9B59D0"/>
<stop offset="1" stop-color="#8E44AD"/>
</linearGradient>
<linearGradient id="paint5_linear_224_7925" x1="90.3179" y1="-52.6365" x2="26.9824" y2="-27.4714" gradientUnits="userSpaceOnUse">
<stop stop-color="#D4A5FF"/>
<stop offset="0.15" stop-color="#C490F0"/>
<stop offset="0.71" stop-color="#9B59D0"/>
<stop offset="1" stop-color="#8E44AD"/>
</linearGradient>
<linearGradient id="paint6_linear_224_7925" x1="89.2395" y1="-0.502327" x2="29.6392" y2="63.5193" gradientUnits="userSpaceOnUse">
<stop stop-color="#D4A5FF"/>
<stop offset="0.15" stop-color="#C490F0"/>
<stop offset="0.71" stop-color="#9B59D0"/>
<stop offset="1" stop-color="#8E44AD"/>
</linearGradient>
<linearGradient id="paint7_linear_224_7925" x1="8.90111" y1="12.1726" x2="70.605" y2="23.8158" gradientUnits="userSpaceOnUse">
<stop stop-color="#38393B"/>
<stop offset="0.33" stop-color="#2E2F31"/>
<stop offset="1" stop-color="#1F2021"/>
</linearGradient>
<linearGradient id="paint8_linear_224_7925" x1="11.6452" y1="-2.38249" x2="73.3536" y2="9.26295" gradientUnits="userSpaceOnUse">
<stop stop-color="#38393B"/>
<stop offset="0.33" stop-color="#2E2F31"/>
<stop offset="1" stop-color="#1F2021"/>
</linearGradient>
<linearGradient id="paint9_linear_224_7925" x1="3.93286" y1="38.493" x2="65.6458" y2="50.1384" gradientUnits="userSpaceOnUse">
<stop stop-color="#38393B"/>
<stop offset="0.33" stop-color="#2E2F31"/>
<stop offset="1" stop-color="#1F2021"/>
</linearGradient>
<linearGradient id="paint10_linear_224_7925" x1="9.81821" y1="7.30891" x2="71.5243" y2="18.9521" gradientUnits="userSpaceOnUse">
<stop stop-color="#38393B"/>
<stop offset="0.33" stop-color="#2E2F31"/>
<stop offset="1" stop-color="#1F2021"/>
</linearGradient>
<linearGradient id="paint11_linear_224_7925" x1="2.1033" y1="48.1844" x2="63.8117" y2="59.8276" gradientUnits="userSpaceOnUse">
<stop stop-color="#38393B"/>
<stop offset="0.33" stop-color="#2E2F31"/>
<stop offset="1" stop-color="#1F2021"/>
</linearGradient>
<linearGradient id="paint12_linear_224_7925" x1="4.84784" y1="33.6315" x2="66.5585" y2="45.2747" gradientUnits="userSpaceOnUse">
<stop stop-color="#38393B"/>
<stop offset="0.33" stop-color="#2E2F31"/>
<stop offset="1" stop-color="#1F2021"/>
</linearGradient>
<linearGradient id="paint13_linear_224_7925" x1="48.5755" y1="10.5582" x2="52.4829" y2="69.779" gradientUnits="userSpaceOnUse">
<stop stop-color="#38393B"/>
<stop offset="0.33" stop-color="#2E2F31"/>
<stop offset="1" stop-color="#1F2021"/>
</linearGradient>
<linearGradient id="paint14_linear_224_7925" x1="20.0666" y1="27.2839" x2="40.6455" y2="27.2839" gradientUnits="userSpaceOnUse">
<stop stop-color="#38393B"/>
<stop offset="0.33" stop-color="#2E2F31"/>
<stop offset="1" stop-color="#1F2021"/>
</linearGradient>
</defs>
</svg>
