<svg width="67" height="64" viewBox="0 0 67 64" fill="none" xmlns="http://www.w3.org/2000/svg">
<path d="M9.67773 7.46487C7.58282 10.299 5.48791 13.133 3.393 15.9671C2.90505 16.628 2.46871 17.3242 2.08163 18.0509L8.36636 9.54869C8.75344 8.81959 9.18978 8.12342 9.67773 7.46487Z" fill="url(#paint0_linear_224_7937)"/>
<path d="M57.3281 56.0606C59.423 53.2266 61.5179 50.3925 63.6128 47.5584C61.661 50.1973 58.9092 52.2623 55.4654 53.5417L49.1807 62.044C52.6245 60.7645 55.3763 58.6995 57.3281 56.0606Z" fill="url(#paint1_linear_224_7937)"/>
<path d="M8.36621 9.54871L2.08148 18.051C1.15015 19.8126 0.507367 21.7905 0.200051 23.9755C-0.107265 26.1605 -0.048622 28.4183 0.319688 30.695L6.60442 22.1927C6.23611 19.9184 6.17746 17.6605 6.48478 15.4756C6.78975 13.2906 7.43253 11.3103 8.36621 9.55106V9.54871Z" fill="url(#paint2_linear_224_7937)"/>
<path d="M41.235 54.5366L34.9502 63.0388C37.4791 63.4692 40.0057 63.6221 42.4666 63.4504C44.9251 63.2787 47.1701 62.7942 49.1806 62.0463L55.4653 53.5441C53.4549 54.292 51.2098 54.7765 48.7513 54.9482C46.2928 55.1199 43.7639 54.967 41.235 54.5366Z" fill="url(#paint3_linear_224_7937)"/>
<path d="M10.2926 23.0512C10.4474 23.0865 10.621 23.0982 10.7993 23.0865C11.062 23.0676 11.3388 22.9971 11.5828 22.8771C11.9722 22.6866 12.2819 22.3691 12.3429 21.9293L13.4314 14.1279C13.4736 13.8175 13.3892 13.467 13.232 13.126C12.9294 12.4722 12.3593 11.8418 11.8878 11.5714L8.36421 9.55105C10.2973 5.90319 13.5229 3.07851 17.8277 1.47919L19.932 4.71076C20.3589 5.3693 21.7102 6.27244 22.7236 6.20189L31.5044 5.58803C32.5108 5.51747 33.0105 4.48497 32.851 3.80761L31.9853 0.472565C37.4255 1.38747 42.9032 3.6124 47.8672 6.79458L46.2861 9.16768C46.0749 9.48754 46.0773 10.1555 46.3541 10.8117C46.4996 11.1551 46.7201 11.4961 47.025 11.783L54.7173 18.9706C54.912 19.1517 55.1326 19.3045 55.3648 19.4268C55.651 19.5797 55.9513 19.6879 56.2445 19.7585C56.5776 19.8384 56.8967 19.8667 57.4081 19.8149C57.4832 19.7984 57.5489 19.7749 57.6052 19.7491L60.3382 18.4437C61.978 20.6898 63.3902 23.077 64.4881 25.5677C65.586 28.0585 66.3085 30.4927 66.6909 32.8282L62.9984 31.9697C62.8624 31.9392 62.7146 31.925 62.4941 31.9344C62.297 31.9486 62.0906 31.9909 61.8982 32.0615C61.4243 32.2355 61.0161 32.5812 60.9458 33.0845L59.8666 40.8906C59.8221 41.1987 59.9065 41.5468 60.0637 41.8902C60.3663 42.544 60.9364 43.1744 61.4056 43.4425L64.9104 45.4981C62.9773 49.1295 59.7587 51.9471 55.4633 53.5417L53.3637 50.3101C52.9344 49.6516 51.5808 48.7485 50.5697 48.812L41.7889 49.4258C40.7755 49.4964 40.2829 50.5359 40.4447 51.2133L41.2353 54.5436C35.8209 53.6193 30.369 51.3967 25.4214 48.2263L27.0073 45.8462C27.2184 45.531 27.2184 44.8607 26.9416 44.2045C26.7961 43.8611 26.5756 43.5201 26.273 43.2379L18.5713 36.0456C18.0763 35.58 17.4007 35.3118 16.8025 35.2131C16.5609 35.1731 16.331 35.159 16.033 35.1825C15.8946 35.1989 15.775 35.2295 15.6811 35.2742L12.9435 36.5819C11.3037 34.3334 9.90548 31.9462 8.80524 29.4555C7.70735 26.9648 6.9848 24.5305 6.60242 22.1951L10.2902 23.0535L10.2926 23.0512Z" fill="url(#paint4_linear_224_7937)"/>
<path d="M6.60721 22.1927L0.322476 30.695C0.704862 33.0305 1.4274 35.4647 2.5253 37.9554C3.62319 40.4461 5.02371 42.8333 6.66351 45.0818L12.9482 36.5795C11.3084 34.3311 9.91027 31.9439 8.81003 29.4532C7.71214 26.9624 6.98959 24.5282 6.60721 22.1927Z" fill="url(#paint5_linear_224_7937)"/>
<path d="M25.4234 48.224L19.1387 56.7262C24.0863 59.8966 29.5382 62.1192 34.9526 63.0435L41.2373 54.5413C35.8229 53.617 30.371 51.3944 25.4234 48.224Z" fill="url(#paint6_linear_224_7937)"/>
<path d="M54.7172 18.9682L47.0249 11.7807C46.7199 11.4961 46.4994 11.1551 46.3539 10.8093C46.0771 10.1531 46.0771 9.48518 46.2859 9.16532L47.8717 6.78516C50.2529 8.31627 52.5495 10.092 54.7031 12.1052C56.8613 14.1185 58.7404 16.2494 60.3403 18.439L57.6073 19.7443C57.551 19.7726 57.4853 19.7937 57.4103 19.8102C57.3727 19.8196 57.3329 19.8267 57.293 19.8314C57.2531 19.8384 57.2085 19.8408 57.164 19.8455C56.9012 19.8643 56.5822 19.8361 56.2467 19.7561C55.9535 19.6855 55.6532 19.5773 55.367 19.4245C55.1347 19.2998 54.9142 19.1493 54.7195 18.9682H54.7172Z" fill="url(#paint7_linear_224_7937)"/>
<path d="M19.932 4.70841L17.8254 1.47684C17.8841 1.45568 17.9427 1.43216 18.0014 1.41099C18.2547 1.31926 18.5128 1.22989 18.7755 1.14522C20.5349 0.580755 22.4633 0.216204 24.5418 0.0703841C26.5546 -0.0707322 28.6096 0.00217808 30.6764 0.272651C31.0611 0.324394 31.4482 0.38084 31.8353 0.444342C31.9103 0.456102 31.9831 0.467862 32.0558 0.481973L32.8487 3.80526C33.0082 4.48262 32.5085 5.51512 31.5021 5.58568L22.7213 6.19954C21.7079 6.27009 20.359 5.36695 19.9297 4.70841H19.932Z" fill="url(#paint8_linear_224_7937)"/>
<path d="M60.9433 33.0845C61.0137 32.5812 61.4219 32.2355 61.8957 32.0615C62.0881 31.9909 62.2945 31.9486 62.4916 31.9344C62.5151 31.9344 62.5362 31.9321 62.5573 31.9297C62.7121 31.925 62.8623 31.9368 62.996 31.9674L66.6885 32.8258C67.0497 35.1002 67.1084 37.3604 66.8034 39.5453C66.5031 41.7303 65.8603 43.7083 64.922 45.4604L61.4031 43.4425C60.9339 43.1744 60.3615 42.544 60.0612 41.8902C59.904 41.5468 59.8196 41.1987 59.8642 40.8906L60.9433 33.0845Z" fill="url(#paint9_linear_224_7937)"/>
<path d="M6.48489 15.4732C6.78986 13.2883 7.43265 11.308 8.36632 9.54871L11.8899 11.569C12.3614 11.8418 12.9315 12.4698 13.2341 13.1237C13.3913 13.467 13.4757 13.8175 13.4335 14.1256L12.345 21.927C12.284 22.3668 11.9744 22.6843 11.5849 22.8748C11.341 22.9947 11.0641 23.0653 10.799 23.0841C10.6208 23.0959 10.4472 23.0841 10.2923 23.0488L6.60453 22.1904C6.23622 19.916 6.17757 17.6582 6.48489 15.4732Z" fill="url(#paint10_linear_224_7937)"/>
<path d="M41.7909 49.4258L50.5717 48.8119C51.5805 48.7484 52.9364 49.6516 53.3657 50.3101L55.4653 53.5417C53.4549 54.2896 51.2098 54.7741 48.7513 54.9458C46.2928 55.1175 43.7639 54.9646 41.235 54.5342L40.4491 51.2109C40.2872 50.5336 40.7798 49.494 41.7933 49.4235L41.7909 49.4258Z" fill="url(#paint11_linear_224_7937)"/>
<path d="M16.0354 35.1801C16.0683 35.1754 16.0988 35.1731 16.134 35.1707C16.331 35.1566 16.5609 35.1707 16.8049 35.2107C17.4008 35.3118 18.0787 35.5799 18.5737 36.0433L26.2754 43.2355C26.5804 43.5177 26.8009 43.8588 26.944 44.2022C27.2208 44.8583 27.2208 45.5286 27.0097 45.8438L25.4238 48.224C23.0451 46.6976 20.7484 44.9242 18.5902 42.9109C16.4483 40.9141 14.5857 38.8021 12.9928 36.6336C12.9787 36.6148 12.9646 36.596 12.9529 36.5795L15.6859 35.2718C15.7797 35.2272 15.8994 35.1966 16.0378 35.1801H16.0354Z" fill="url(#paint12_linear_224_7937)"/>
<path d="M12.9529 36.5795L6.66816 45.0818C6.68224 45.1006 6.69632 45.1194 6.70805 45.1359C8.29858 47.3044 10.1636 49.4188 12.3054 51.4156C14.4637 53.4288 16.7627 55.2022 19.1391 56.7286L25.4238 48.2263C23.0451 46.6999 20.7484 44.9266 18.5902 42.9133C16.4483 40.9165 14.5857 38.8045 12.9928 36.636C12.9787 36.6172 12.9646 36.5983 12.9529 36.5819V36.5795Z" fill="url(#paint13_linear_224_7937)"/>
<g style="mix-blend-mode:overlay">
<path d="M28.4147 9.11122C38.8681 8.38212 51.0294 16.1435 55.5734 26.445C60.1198 36.7489 55.3295 45.6933 44.876 46.4247C34.4226 47.1538 22.2683 39.3924 17.7219 29.0886C13.1779 18.7871 17.9612 9.84032 28.4147 9.11122Z" fill="white"/>
</g>
<path d="M28.4147 8.85252C38.8681 8.12342 51.0294 15.8848 55.5734 26.1863C60.1198 36.4902 55.3295 45.4346 44.876 46.166C34.4226 46.8951 22.2683 39.1337 17.7219 28.8299C13.1779 18.5284 17.9612 9.58162 28.4147 8.85252Z" fill="#1F2021"/>
<path d="M32.1494 16.621L45.6689 27.0377L41.1366 38.3976L27.6288 27.9879L32.1494 16.621Z" fill="url(#paint14_linear_224_7937)"/>
<path d="M54.9614 28.1972C50.4173 17.8957 38.256 10.132 27.8026 10.8634C22.048 11.2656 18.0154 14.1608 16.3076 18.4014C17.4453 13.0813 21.79 9.31586 28.4149 8.85252C38.8683 8.12342 51.0296 15.8848 55.5736 26.1863C57.6169 30.8149 57.7694 35.166 56.376 38.6257C57.0328 35.5541 56.6246 31.9674 54.9614 28.1972Z" fill="#151617"/>
<g style="mix-blend-mode:multiply">
<path d="M0.200312 23.9755C0.505282 21.7905 1.14806 19.8102 2.08174 18.0509C2.46882 17.3218 2.90516 16.6257 3.39311 15.9671C3.49399 15.8307 3.5972 15.692 3.69808 15.5555C3.38372 16.0659 3.0858 16.6139 2.83009 17.0961C1.89876 18.8577 1.25597 20.8356 0.948655 23.0206C0.641339 25.2055 0.702335 27.4634 1.0683 29.7401C1.45068 32.0756 2.17323 34.5098 3.27113 37.0005C4.36902 39.4912 5.76953 41.8784 7.40933 44.1269L7.42341 44.1175L7.41637 44.1269C7.43044 44.1457 7.44452 44.1645 7.45625 44.181C9.04679 46.3495 10.9118 48.4639 13.0536 50.4607C15.2119 52.4739 17.5109 54.2473 19.8873 55.7737C24.8349 58.9441 30.2868 61.1667 35.7012 62.091L35.7059 62.0863C38.2324 62.5167 40.7566 62.6672 43.2152 62.4955C45.6737 62.3238 47.9187 61.8393 49.9292 61.0914C53.0563 59.9296 55.6063 58.1139 57.5112 55.8137C57.4502 55.896 57.3892 55.9807 57.3259 56.063C55.3741 58.7042 52.6223 60.7669 49.1785 62.0463C47.1681 62.7942 44.923 63.2787 42.4645 63.4504C40.0059 63.6221 37.4817 63.4692 34.9552 63.0412L34.9505 63.0459C29.5361 62.1216 24.0842 59.899 19.1366 56.7286C16.7578 55.2022 14.4612 53.4288 12.3029 51.4156C10.1611 49.4188 8.29844 47.3067 6.70555 45.1359C6.69148 45.1171 6.67741 45.1006 6.66568 45.0818L6.67271 45.0724L6.65864 45.0818C5.01884 42.8333 3.62067 40.4461 2.52043 37.9554C1.42253 35.4647 0.699994 33.0304 0.317608 30.695C-0.0507022 28.4206 -0.109353 26.1628 0.197963 23.9755H0.200312Z" fill="#B0AAAA"/>
</g>
<g style="mix-blend-mode:overlay">
<path d="M8.39933 29.9729C7.30143 27.4822 6.57889 25.048 6.19651 22.7125C5.8282 20.4382 5.76955 18.1803 6.07686 15.993C6.38183 13.8081 7.02461 11.8277 7.95829 10.0685C8.26092 9.49695 8.60577 8.9513 8.97173 8.42211C9.20632 8.10225 9.44326 7.78474 9.6802 7.46487C9.19225 8.12342 8.75591 8.81959 8.36883 9.54869C7.4375 11.3103 6.79472 13.2883 6.4874 15.4732C6.18008 17.6582 6.23873 19.916 6.60704 22.1904C6.98943 24.5258 7.71197 26.9624 8.80986 29.4508C9.90776 31.9415 11.3083 34.3287 12.9481 36.5772L12.941 36.5936L12.9528 36.5772C12.9668 36.596 12.9809 36.6124 12.9927 36.6313C14.5832 38.7998 16.4482 40.9141 18.59 42.9086C20.7483 44.9218 23.0473 46.6952 25.4237 48.2216C30.3689 51.3897 35.8185 53.6123 41.2305 54.5366L41.2352 54.5319C43.7641 54.9623 46.2907 55.1151 48.7516 54.9435C51.2101 54.7718 53.4552 54.2873 55.4656 53.5393C58.7241 52.3281 61.3539 50.4089 63.2822 47.97C63.2564 48.0052 63.2306 48.0405 63.2048 48.0758C61.253 50.717 58.5012 52.7797 55.0574 54.0591C53.047 54.807 50.8019 55.2915 48.3434 55.4632C45.8849 55.6349 43.3606 55.482 40.8341 55.054L40.8294 55.0587C35.415 54.1344 29.9631 51.9118 25.0155 48.7414C22.6367 47.215 20.3401 45.4416 18.1818 43.4284C16.04 41.4316 14.1773 39.3195 12.5845 37.1487C12.5704 37.1299 12.5563 37.1134 12.5446 37.0946L12.5516 37.0852L12.5375 37.0946C10.8977 34.8461 9.49956 32.4589 8.39933 29.9682V29.9729Z" fill="white"/>
</g>
<defs>
<linearGradient id="paint0_linear_224_7937" x1="-13.8519" y1="-8.37308" x2="46.2666" y2="55.6813" gradientUnits="userSpaceOnUse">
<stop stop-color="#38393B"/>
<stop offset="0.33" stop-color="#2E2F31"/>
<stop offset="1" stop-color="#1F2021"/>
</linearGradient>
<linearGradient id="paint1_linear_224_7937" x1="-7.85813" y1="-14.0083" x2="52.2674" y2="50.053" gradientUnits="userSpaceOnUse">
<stop stop-color="#38393B"/>
<stop offset="0.33" stop-color="#2E2F31"/>
<stop offset="1" stop-color="#1F2021"/>
</linearGradient>
<linearGradient id="paint2_linear_224_7937" x1="4.72065" y1="9.73451" x2="0.749916" y2="69.4348" gradientUnits="userSpaceOnUse">
<stop stop-color="white"/>
<stop offset="0.15" stop-color="#F2F4F8"/>
<stop offset="0.71" stop-color="#C8D1E1"/>
<stop offset="1" stop-color="#B8C4D9"/>
</linearGradient>
<linearGradient id="paint3_linear_224_7937" x1="48.2305" y1="12.6298" x2="44.2574" y2="72.33" gradientUnits="userSpaceOnUse">
<stop stop-color="white"/>
<stop offset="0.15" stop-color="#F2F4F8"/>
<stop offset="0.71" stop-color="#C8D1E1"/>
<stop offset="1" stop-color="#B8C4D9"/>
</linearGradient>
<linearGradient id="paint4_linear_224_7937" x1="55.6815" y1="24.3071" x2="-23.9104" y2="37.6278" gradientUnits="userSpaceOnUse">
<stop stop-color="#38393B"/>
<stop offset="0.33" stop-color="#2E2F31"/>
<stop offset="1" stop-color="#1F2021"/>
</linearGradient>
<linearGradient id="paint5_linear_224_7937" x1="-23.8405" y1="1.00175" x2="36.2802" y2="65.0561" gradientUnits="userSpaceOnUse">
<stop stop-color="#38393B"/>
<stop offset="0.33" stop-color="#2E2F31"/>
<stop offset="1" stop-color="#1F2021"/>
</linearGradient>
<linearGradient id="paint6_linear_224_7937" x1="-22.2364" y1="-0.505858" x2="37.8868" y2="63.5508" gradientUnits="userSpaceOnUse">
<stop stop-color="#38393B"/>
<stop offset="0.33" stop-color="#2E2F31"/>
<stop offset="1" stop-color="#1F2021"/>
</linearGradient>
<linearGradient id="paint7_linear_224_7937" x1="58.1047" y1="12.2722" x2="-3.63436" y2="23.8264" gradientUnits="userSpaceOnUse">
<stop stop-color="white"/>
<stop offset="0.15" stop-color="#F2F4F8"/>
<stop offset="0.71" stop-color="#C8D1E1"/>
<stop offset="1" stop-color="#B8C4D9"/>
</linearGradient>
<linearGradient id="paint8_linear_224_7937" x1="55.3602" y1="-2.4015" x2="-6.38353" y2="9.15505" gradientUnits="userSpaceOnUse">
<stop stop-color="white"/>
<stop offset="0.15" stop-color="#F2F4F8"/>
<stop offset="0.71" stop-color="#C8D1E1"/>
<stop offset="1" stop-color="#B8C4D9"/>
</linearGradient>
<linearGradient id="paint9_linear_224_7937" x1="63.071" y1="38.8092" x2="1.32498" y2="50.3657" gradientUnits="userSpaceOnUse">
<stop stop-color="white"/>
<stop offset="0.15" stop-color="#F2F4F8"/>
<stop offset="0.71" stop-color="#C8D1E1"/>
<stop offset="1" stop-color="#B8C4D9"/>
</linearGradient>
<linearGradient id="paint10_linear_224_7937" x1="57.185" y1="7.36846" x2="-4.55403" y2="18.925" gradientUnits="userSpaceOnUse">
<stop stop-color="white"/>
<stop offset="0.15" stop-color="#F2F4F8"/>
<stop offset="0.71" stop-color="#C8D1E1"/>
<stop offset="1" stop-color="#B8C4D9"/>
</linearGradient>
<linearGradient id="paint11_linear_224_7937" x1="64.8983" y1="48.5791" x2="3.15927" y2="60.1357" gradientUnits="userSpaceOnUse">
<stop stop-color="white"/>
<stop offset="0.15" stop-color="#F2F4F8"/>
<stop offset="0.71" stop-color="#C8D1E1"/>
<stop offset="1" stop-color="#B8C4D9"/>
</linearGradient>
<linearGradient id="paint12_linear_224_7937" x1="62.1563" y1="33.9077" x2="0.41259" y2="45.4643" gradientUnits="userSpaceOnUse">
<stop stop-color="white"/>
<stop offset="0.15" stop-color="#F2F4F8"/>
<stop offset="0.71" stop-color="#C8D1E1"/>
<stop offset="1" stop-color="#B8C4D9"/>
</linearGradient>
<linearGradient id="paint13_linear_224_7937" x1="18.4283" y1="10.6447" x2="14.4576" y2="70.3473" gradientUnits="userSpaceOnUse">
<stop stop-color="white"/>
<stop offset="0.15" stop-color="#F2F4F8"/>
<stop offset="0.71" stop-color="#C8D1E1"/>
<stop offset="1" stop-color="#B8C4D9"/>
</linearGradient>
<linearGradient id="paint14_linear_224_7937" x1="45.6689" y1="27.5081" x2="27.6288" y2="27.5081" gradientUnits="userSpaceOnUse">
<stop stop-color="white"/>
<stop offset="0.15" stop-color="#F2F4F8"/>
<stop offset="0.71" stop-color="#C8D1E1"/>
<stop offset="1" stop-color="#B8C4D9"/>
</linearGradient>
</defs>
</svg>
