<svg width="57" height="54" viewBox="0 0 57 54" fill="none" xmlns="http://www.w3.org/2000/svg">
<path d="M8.23047 6.34566C6.44879 8.7544 4.66712 11.1631 2.88324 13.5741C2.46818 14.1359 2.09506 14.7265 1.7661 15.3458L7.11334 8.11738C7.44229 7.49805 7.81541 6.90526 8.23047 6.34566Z" fill="url(#paint0_linear_224_7908)"/>
<path d="M48.7695 47.6593C50.5511 45.2505 52.335 42.8396 54.1167 40.4308C52.4565 42.6759 50.1162 44.4299 47.1843 45.5182L41.8371 52.7466C44.7668 51.6584 47.1092 49.9043 48.7695 47.6593Z" fill="url(#paint1_linear_224_7908)"/>
<path d="M7.11523 8.11738L1.768 15.3458C0.975412 16.8433 0.427884 18.5243 0.167366 20.3823C-0.0931512 22.2403 -0.0423675 24.1602 0.268929 26.0934L5.61616 18.8649C5.30266 16.9317 5.25187 15.0118 5.5146 13.1538C5.77511 11.2959 6.32264 9.61261 7.11523 8.11738Z" fill="url(#paint2_linear_224_7908)"/>
<path d="M35.0769 46.3631L29.7297 53.5916C31.8822 53.9587 34.0304 54.087 36.1234 53.941C38.2141 53.7951 40.1261 53.3814 41.8349 52.7466L47.1821 45.5182C45.4733 46.1552 43.5614 46.5666 41.4706 46.7126C39.3776 46.8586 37.2295 46.7303 35.0769 46.3631Z" fill="url(#paint3_linear_224_7908)"/>
<path d="M8.75354 19.5949C8.88601 19.6258 9.03172 19.6347 9.18627 19.6236C9.41146 19.6081 9.64549 19.5484 9.85302 19.4467C10.1842 19.283 10.4491 19.0131 10.4999 18.6415L11.4249 12.0103C11.4603 11.7471 11.3896 11.4485 11.2549 11.1587C10.9988 10.6013 10.5131 10.0683 10.1113 9.83602L7.11537 8.11959C8.76016 5.01853 11.5044 2.61642 15.1649 1.25832L16.9554 4.00548C17.3197 4.56509 18.4678 5.33483 19.3288 5.2729L26.7977 4.75089C27.6543 4.69117 28.0804 3.81305 27.9435 3.23796L27.2083 0.402321C31.8358 1.17869 36.4964 3.07207 40.7199 5.77721L39.3732 7.79445C39.1943 8.06651 39.1943 8.63496 39.4306 9.19236C39.5542 9.48433 39.7419 9.77408 40.0002 10.0174L46.544 16.1266C46.7096 16.2815 46.8973 16.4097 47.096 16.5159C47.3388 16.6442 47.5949 16.7371 47.8444 16.7968C48.1292 16.8654 48.4008 16.8897 48.8357 16.8433C48.8997 16.83 48.9549 16.8101 49.0035 16.788L51.3283 15.6776C52.7236 17.5887 53.9246 19.617 54.8585 21.7338C55.7924 23.8505 56.4062 25.9209 56.7329 27.9071L53.5912 27.1772C53.4764 27.1507 53.3484 27.1396 53.1607 27.1485C52.9929 27.1595 52.8185 27.1971 52.6529 27.2568C52.2489 27.405 51.9023 27.6992 51.8427 28.1261L50.9243 34.7618C50.8867 35.0228 50.9596 35.3214 51.092 35.6111C51.3481 36.1663 51.8361 36.7016 52.2357 36.9294L55.2162 38.6768C53.5714 41.7646 50.8337 44.1579 47.1799 45.516L45.3938 42.7688C45.0295 42.2092 43.877 41.4417 43.0182 41.497L35.5471 42.019C34.6861 42.0787 34.2666 42.9612 34.4035 43.5385L35.0746 46.3698C30.4692 45.5845 25.8307 43.6934 21.6205 40.9993L22.9694 38.9754C23.1504 38.7078 23.1482 38.1371 22.912 37.5797C22.7884 37.2877 22.6007 36.998 22.3424 36.7569L15.7897 30.641C15.368 30.2451 14.794 30.0173 14.2862 29.9332C14.0787 29.8978 13.8844 29.889 13.6327 29.9067C13.5157 29.9199 13.4142 29.9465 13.3347 29.9841L11.0055 31.0945C9.61016 29.1834 8.42017 27.1529 7.48628 25.0361C6.55239 22.9193 5.93642 20.849 5.61188 18.8627L8.74913 19.5927L8.75354 19.5949Z" fill="url(#paint4_linear_224_7908)"/>
<path d="M5.61617 18.8649L0.268941 26.0934C0.593484 28.0797 1.20945 30.15 2.14334 32.2668C3.07723 34.3835 4.26943 36.414 5.66253 38.3251L11.0098 31.0967C9.61445 29.1856 8.42446 27.1551 7.49057 25.0383C6.55668 22.9215 5.94072 20.8512 5.61617 18.8649Z" fill="url(#paint5_linear_224_7908)"/>
<path d="M21.6269 40.9971L16.2796 48.2255C20.4877 50.9196 25.1262 52.8108 29.7338 53.596L35.0811 46.3675C30.4756 45.5823 25.8371 43.6911 21.6269 40.9971Z" fill="url(#paint6_linear_224_7908)"/>
<path d="M46.5483 16.1244L40.0044 10.0152C39.7439 9.77187 39.5562 9.48211 39.4348 9.19015C39.1986 8.63275 39.1986 8.0643 39.3774 7.79223L40.7264 5.76836C42.7509 7.07116 44.707 8.57967 46.5372 10.2917C48.3741 12.0037 49.9703 13.8152 51.3325 15.6776L49.0077 16.788C48.9592 16.8101 48.904 16.83 48.8399 16.8433C48.809 16.8499 48.7737 16.8565 48.7384 16.861C48.7031 16.8654 48.6677 16.8698 48.628 16.872C48.4028 16.8875 48.1312 16.8632 47.8487 16.7946C47.5992 16.7349 47.3431 16.642 47.1002 16.5137C46.9015 16.4075 46.7139 16.2792 46.5483 16.1244Z" fill="url(#paint7_linear_224_7908)"/>
<path d="M16.9554 4.00106L15.1649 1.25389C15.2157 1.2362 15.2643 1.21629 15.3151 1.1986C15.5314 1.11897 15.75 1.04376 15.973 0.972984C17.4698 0.493004 19.1102 0.183341 20.8786 0.0594753C22.5897 -0.0599666 24.3382 0.00196593 26.0978 0.232002C26.4268 0.27624 26.7557 0.322689 27.0847 0.377987C27.1487 0.389046 27.2105 0.397893 27.2724 0.408953L27.9479 3.23353C28.0848 3.80862 27.6587 4.68674 26.8021 4.74646L19.3332 5.26847C18.4722 5.32819 17.3241 4.56066 16.9598 4.00106H16.9554Z" fill="url(#paint8_linear_224_7908)"/>
<path d="M51.8448 28.1261C51.9044 27.697 52.2533 27.405 52.6551 27.2568C52.8185 27.1971 52.9929 27.1595 53.1629 27.1485C53.1827 27.1485 53.2004 27.1462 53.2203 27.1462C53.3527 27.1418 53.4786 27.1529 53.5934 27.1794L56.7351 27.9093C57.0419 29.8425 57.0927 31.7647 56.8322 33.6204C56.5761 35.4784 56.0308 37.1595 55.2316 38.6503L52.2378 36.9361C51.8382 36.7082 51.3525 36.173 51.0942 35.6178C50.9595 35.3258 50.8889 35.0294 50.9264 34.7684L51.8448 28.1327V28.1261Z" fill="url(#paint9_linear_224_7908)"/>
<path d="M5.51453 13.1538C5.77505 11.2959 6.32258 9.61261 7.11517 8.11738L10.1111 9.8338C10.5129 10.0661 10.9986 10.5991 11.2547 11.1565C11.3894 11.4485 11.4623 11.7449 11.4247 12.0081L10.4997 18.6393C10.4489 19.0131 10.184 19.283 9.85282 19.4444C9.64528 19.5462 9.40905 19.6059 9.18606 19.6214C9.03373 19.6325 8.88581 19.6214 8.75555 19.5926L5.6183 18.8627C5.30479 16.9295 5.25402 15.0096 5.51674 13.1516L5.51453 13.1538Z" fill="url(#paint10_linear_224_7908)"/>
<path d="M35.5513 42.019L43.0224 41.497C43.8812 41.4417 45.0337 42.2092 45.398 42.7688L47.1841 45.516C45.4753 46.153 43.5633 46.5644 41.4726 46.7104C39.3796 46.8564 37.2314 46.7281 35.0788 46.3609L34.4099 43.5341C34.273 42.959 34.6903 42.0765 35.5535 42.0145L35.5513 42.019Z" fill="url(#paint11_linear_224_7908)"/>
<path d="M13.6394 29.9067C13.6659 29.9045 13.6946 29.9 13.7233 29.8978C13.8911 29.8868 14.0876 29.8978 14.2929 29.931C14.8007 30.0151 15.3747 30.2451 15.7964 30.6388L22.3491 36.7547C22.6074 36.9958 22.7951 37.2855 22.9187 37.5775C23.1527 38.1349 23.1549 38.7056 22.9761 38.9732L21.6271 40.9971C19.6048 39.6987 17.6487 38.1924 15.8119 36.4804C13.9905 34.7839 12.4053 32.9878 11.0519 31.1431C11.0409 31.1276 11.0298 31.1121 11.0166 31.0967L13.3414 29.9863C13.4208 29.9487 13.5224 29.9222 13.6394 29.9089V29.9067Z" fill="url(#paint12_linear_224_7908)"/>
<path d="M11.0164 31.0967L5.66915 38.3251C5.68019 38.3406 5.69123 38.3561 5.70448 38.3716C7.05785 40.2163 8.64524 42.0123 10.4644 43.7088C12.3013 45.4208 14.2552 46.9271 16.2797 48.2255L21.627 40.9971C19.6046 39.6987 17.6485 38.1924 15.8117 36.4804C13.9903 34.7839 12.4051 32.9878 11.0517 31.1431C11.0407 31.1276 11.0296 31.1121 11.0164 31.0967Z" fill="url(#paint13_linear_224_7908)"/>
<path d="M24.1726 7.74578C33.0655 7.12424 43.4111 13.7245 47.277 22.4836C51.145 31.2427 47.0694 38.8471 38.1765 39.4687C29.2836 40.0902 18.9424 33.4899 15.0766 24.7309C11.2107 15.9718 15.2797 8.36732 24.1726 7.74578Z" fill="#FF4545"/>
<path d="M24.1726 7.52459C33.0655 6.90305 43.4111 13.5033 47.277 22.2624C51.145 31.0215 47.0694 38.6259 38.1765 39.2475C29.2836 39.869 18.9424 33.2687 15.0766 24.5097C11.2107 15.7506 15.2797 8.14613 24.1726 7.52459Z" fill="#A10400"/>
<path d="M24.3582 17.5754C26.2414 17.4759 28.3013 18.3982 29.7937 19.8426C30.0543 18.3053 31.2796 17.2127 33.1606 17.1131C35.9667 16.9649 39.1591 19.0795 40.2983 21.8399C41.5126 24.7751 40.2255 27.0202 38.9693 28.6437C38.1148 29.7541 37.1986 30.6123 37.0971 30.7118L35.0637 32.6074L31.582 31.0016C31.412 30.9175 29.8401 30.1898 28.118 29.2144C25.6034 27.7899 22.5567 25.7727 21.3446 22.8375C20.2054 20.0771 21.5609 17.7258 24.3604 17.5776L24.3582 17.5754Z" fill="url(#paint14_linear_224_7908)"/>
<path d="M46.756 23.9722C42.8902 15.2131 32.5446 8.61505 23.6517 9.23438C18.7548 9.57501 15.3261 12.0391 13.8734 15.6422C14.8404 11.1211 18.5362 7.91831 24.1749 7.52459C33.0678 6.90305 43.4134 13.5033 47.2793 22.2624C49.0168 26.1973 49.147 29.8978 47.9615 32.8374C48.52 30.2274 48.1734 27.1772 46.7582 23.9722H46.756Z" fill="#780300"/>
<g style="mix-blend-mode:multiply">
<path d="M0.167298 20.3823C0.427815 18.5243 0.975344 16.8411 1.76793 15.3458C2.09689 14.7265 2.47001 14.1337 2.88507 13.5741C2.97117 13.4569 3.05728 13.3396 3.14559 13.2246C2.87845 13.6582 2.62456 14.1249 2.4082 14.5341C1.6156 16.0315 1.06808 17.7125 0.807558 19.5705C0.547041 21.4285 0.597818 23.3484 0.909114 25.2816C1.23366 27.2679 1.84742 29.3382 2.78351 31.455C3.7174 33.5718 4.9096 35.6023 6.30271 37.5134L6.31374 37.5045L6.30712 37.5134C6.31816 37.5288 6.3292 37.5443 6.34245 37.5598C7.69581 39.4045 9.2832 41.2006 11.1024 42.8971C12.9393 44.6091 14.8932 46.1154 16.9177 47.4138C21.1257 50.1078 25.7642 51.999 30.3719 52.7842L30.3763 52.7798C32.5267 53.1448 34.6748 53.2753 36.7656 53.1293C38.8564 52.9833 40.7683 52.5697 42.4771 51.9349C45.1375 50.9461 47.3077 49.4045 48.9282 47.4469C48.8752 47.5177 48.8245 47.5885 48.7715 47.6593C47.1112 49.9043 44.771 51.6584 41.8391 52.7466C40.1302 53.3814 38.2183 53.7951 36.1275 53.941C34.0368 54.087 31.8886 53.9587 29.7382 53.5916L29.7338 53.596C25.1284 52.8108 20.4899 50.9218 16.2796 48.2255C14.2573 46.9271 12.3012 45.4186 10.4644 43.7088C8.64295 42.0123 7.05777 40.2141 5.7044 38.3716C5.69336 38.3561 5.68232 38.3406 5.66908 38.3251L5.6757 38.3163L5.66466 38.3251C4.26935 36.414 3.07936 34.3835 2.14547 32.2668C1.21158 30.15 0.595607 28.0797 0.271064 26.0934C-0.0424404 24.1602 -0.0932174 22.2403 0.169508 20.3823H0.167298Z" fill="#B0AAAA"/>
</g>
<g style="mix-blend-mode:overlay">
<path d="M7.14395 25.4807C6.21006 23.3639 5.5941 21.2936 5.26955 19.3073C4.95605 17.3741 4.90527 15.4542 5.168 13.5962C5.42852 11.7382 5.97604 10.055 6.76864 8.55976C7.02695 8.07314 7.32058 7.61086 7.62967 7.15963C7.83057 6.88757 8.03148 6.61772 8.23239 6.34566C7.81732 6.90748 7.44421 7.49805 7.11525 8.11738C6.32266 9.61483 5.77513 11.2959 5.51461 13.1538C5.2541 15.0118 5.30488 16.9317 5.61618 18.8649C5.94072 20.8512 6.55669 22.9215 7.49058 25.0383C8.42446 27.1551 9.61666 29.1856 11.0098 31.0967L11.0054 31.1099L11.0164 31.0967C11.0274 31.1122 11.0385 31.1276 11.0517 31.1431C12.4051 32.9878 13.9925 34.7839 15.8117 36.4804C17.6485 38.1924 19.6024 39.6987 21.627 40.9971C25.8328 43.6911 30.4713 45.5801 35.0745 46.3675L35.0789 46.3631C37.2315 46.7303 39.3819 46.8586 41.4727 46.7126C43.5634 46.5666 45.4753 46.1552 47.1842 45.5182C49.9571 44.4896 52.1936 42.8573 53.834 40.7825C53.8119 40.8113 53.7898 40.8422 53.7678 40.871C52.1075 43.1161 49.7673 44.8701 46.8353 45.9583C45.1265 46.5931 43.2146 47.0068 41.1238 47.1528C39.0331 47.2987 36.8849 47.1704 34.7345 46.8033L34.7301 46.8077C30.1247 46.0225 25.4862 44.1335 21.2759 41.4372C19.2536 40.1389 17.2975 38.6304 15.4606 36.9206C13.6392 35.224 12.054 33.4258 10.7007 31.5833C10.6896 31.5678 10.6786 31.5523 10.6654 31.5368L10.672 31.528L10.6609 31.5368C9.26562 29.6258 8.07563 27.5953 7.14174 25.4785L7.14395 25.4807Z" fill="white"/>
</g>
<defs>
<linearGradient id="paint0_linear_224_7908" x1="-11.7874" y1="-7.1181" x2="39.3222" y2="47.372" gradientUnits="userSpaceOnUse">
<stop stop-color="#FF3936"/>
<stop offset="0.26" stop-color="#E52925"/>
<stop offset="0.75" stop-color="#BB0E0A"/>
<stop offset="1" stop-color="#AB0400"/>
</linearGradient>
<linearGradient id="paint1_linear_224_7908" x1="-6.68763" y1="-11.9112" x2="44.4264" y2="42.5854" gradientUnits="userSpaceOnUse">
<stop stop-color="#FF3936"/>
<stop offset="0.26" stop-color="#E52925"/>
<stop offset="0.75" stop-color="#BB0E0A"/>
<stop offset="1" stop-color="#AB0400"/>
</linearGradient>
<linearGradient id="paint2_linear_224_7908" x1="4.01331" y1="8.27442" x2="0.638387" y2="59.0276" gradientUnits="userSpaceOnUse">
<stop stop-color="white"/>
<stop offset="0.15" stop-color="#F2F4F8"/>
<stop offset="0.71" stop-color="#C8D1E1"/>
<stop offset="1" stop-color="#B8C4D9"/>
</linearGradient>
<linearGradient id="paint3_linear_224_7908" x1="41.0291" y1="10.7362" x2="37.6541" y2="61.4916" gradientUnits="userSpaceOnUse">
<stop stop-color="white"/>
<stop offset="0.15" stop-color="#F2F4F8"/>
<stop offset="0.71" stop-color="#C8D1E1"/>
<stop offset="1" stop-color="#B8C4D9"/>
</linearGradient>
<linearGradient id="paint4_linear_224_7908" x1="47.3675" y1="20.6632" x2="-20.343" y2="32.0044" gradientUnits="userSpaceOnUse">
<stop stop-color="#FF3936"/>
<stop offset="0.26" stop-color="#E52925"/>
<stop offset="0.75" stop-color="#BB0E0A"/>
<stop offset="1" stop-color="#AB0400"/>
</linearGradient>
<linearGradient id="paint5_linear_224_7908" x1="-20.2854" y1="0.851332" x2="30.8242" y2="55.3436" gradientUnits="userSpaceOnUse">
<stop stop-color="#FF3936"/>
<stop offset="0.26" stop-color="#E52925"/>
<stop offset="0.75" stop-color="#BB0E0A"/>
<stop offset="1" stop-color="#AB0400"/>
</linearGradient>
<linearGradient id="paint6_linear_224_7908" x1="-18.9189" y1="-0.431561" x2="32.1907" y2="54.0629" gradientUnits="userSpaceOnUse">
<stop stop-color="#FF3936"/>
<stop offset="0.26" stop-color="#E52925"/>
<stop offset="0.75" stop-color="#BB0E0A"/>
<stop offset="1" stop-color="#AB0400"/>
</linearGradient>
<linearGradient id="paint7_linear_224_7908" x1="49.4294" y1="10.4332" x2="-3.09136" y2="20.2695" gradientUnits="userSpaceOnUse">
<stop stop-color="white"/>
<stop offset="0.15" stop-color="#F2F4F8"/>
<stop offset="0.71" stop-color="#C8D1E1"/>
<stop offset="1" stop-color="#B8C4D9"/>
</linearGradient>
<linearGradient id="paint8_linear_224_7908" x1="47.0938" y1="-2.04182" x2="-5.43142" y2="7.79441" gradientUnits="userSpaceOnUse">
<stop stop-color="white"/>
<stop offset="0.15" stop-color="#F2F4F8"/>
<stop offset="0.71" stop-color="#C8D1E1"/>
<stop offset="1" stop-color="#B8C4D9"/>
</linearGradient>
<linearGradient id="paint9_linear_224_7908" x1="53.6552" y1="32.9923" x2="1.1256" y2="42.8307" gradientUnits="userSpaceOnUse">
<stop stop-color="white"/>
<stop offset="0.15" stop-color="#F2F4F8"/>
<stop offset="0.71" stop-color="#C8D1E1"/>
<stop offset="1" stop-color="#B8C4D9"/>
</linearGradient>
<linearGradient id="paint10_linear_224_7908" x1="48.6478" y1="6.26382" x2="-3.87515" y2="16.1" gradientUnits="userSpaceOnUse">
<stop stop-color="white"/>
<stop offset="0.15" stop-color="#F2F4F8"/>
<stop offset="0.71" stop-color="#C8D1E1"/>
<stop offset="1" stop-color="#B8C4D9"/>
</linearGradient>
<linearGradient id="paint11_linear_224_7908" x1="55.2093" y1="41.3001" x2="2.68636" y2="51.1363" gradientUnits="userSpaceOnUse">
<stop stop-color="white"/>
<stop offset="0.15" stop-color="#F2F4F8"/>
<stop offset="0.71" stop-color="#C8D1E1"/>
<stop offset="1" stop-color="#B8C4D9"/>
</linearGradient>
<linearGradient id="paint12_linear_224_7908" x1="52.876" y1="28.8251" x2="0.350808" y2="38.6635" gradientUnits="userSpaceOnUse">
<stop stop-color="white"/>
<stop offset="0.15" stop-color="#F2F4F8"/>
<stop offset="0.71" stop-color="#C8D1E1"/>
<stop offset="1" stop-color="#B8C4D9"/>
</linearGradient>
<linearGradient id="paint13_linear_224_7908" x1="15.677" y1="9.04858" x2="12.2999" y2="59.8039" gradientUnits="userSpaceOnUse">
<stop stop-color="white"/>
<stop offset="0.15" stop-color="#F2F4F8"/>
<stop offset="0.71" stop-color="#C8D1E1"/>
<stop offset="1" stop-color="#B8C4D9"/>
</linearGradient>
<linearGradient id="paint14_linear_224_7908" x1="40.784" y1="24.8547" x2="20.9384" y2="24.8547" gradientUnits="userSpaceOnUse">
<stop stop-color="white"/>
<stop offset="0.15" stop-color="#F2F4F8"/>
<stop offset="0.71" stop-color="#C8D1E1"/>
<stop offset="1" stop-color="#B8C4D9"/>
</linearGradient>
</defs>
</svg>
